# xmcd
#
# Track frame offsets: 
#        150
#        16022
#        36997
#        57111
#        73778
#        98956
#        117186
#        133160
#        152026
#        174269
#
# Disc length: 2646 seconds
#
# Revision: 0
# Processed by: cddbd v1.5.2PL0 Copyright (c) Steve Scherf et al.
# Submitted via: ExactAudioCopy v1.3
#
DISCID=7f0a540a
DTITLE=Juurakko - Oi, maalina
DYEAR=2017
DGENRE=Folklore
TTITLE0=Pala sielua
TTITLE1=Uolevi kuolevi
TTITLE2=Korte-Heikin lupaus
TTITLE3=Ennuskauppias V.Käki
TTITLE4=Neiti se istuu kammiossa
TTITLE5=Tanssi, tanssi
TTITLE6=Lauluneuvoja kanttori Kukkaselta
TTITLE7=Kell' onni on
TTITLE8=Otteita perämies Karlssonin elämästä
TTITLE9=Oi, maalina
EXTD=
EXTT0=
EXTT1=
EXTT2=
EXTT3=
EXTT4=
EXTT5=
EXTT6=
EXTT7=
EXTT8=
EXTT9=
PLAYORDER=
